<svg xmlns="http://www.w3.org/2000/svg" viewBox="0 0 27.01 27.02"><defs><style>.cls-1{fill:#fff;}</style></defs><title>whatsapp-logo</title><g id="Layer_2" data-name="Layer 2"><g id="Capa_1" data-name="Capa 1"><path class="cls-1" d="M19.75,16.51c-.43-.21-2-1-2.27-1.07l-.2-.06a13.7,13.7,0,0,1-1.1,1.41,1,1,0,0,1-1.33.21l-.22-.1A9.34,9.34,0,0,1,12,15.25a10.74,10.74,0,0,1-2-2.46,1,1,0,0,1,.23-1.29c.09-.09.2-.22.3-.35l.18-.22a1.41,1.41,0,0,0,.23-.36l0-.1s0,0,0-.15-.36-.84-.65-1.54L10,8.05,9.9,7.79a1.1,1.1,0,0,0-.15-.23c-.08-.11-.08-.19-.24-.21a1.42,1.42,0,0,0-.43,0,.75.75,0,0,0-.36.19,2.45,2.45,0,0,0-.31.23l-.07.08a3.21,3.21,0,0,0-1,2.4,6,6,0,0,0,1.29,3.19l.09.13a12.7,12.7,0,0,0,5.51,4.81c2.72,1.06,3.17,1,3.5.88a2.47,2.47,0,0,1,.36-.06A3,3,0,0,0,20,17.9a3.32,3.32,0,0,0,.22-1.18L20,16.61Z"/><path class="cls-1" d="M13.62,0A13.36,13.36,0,0,0,.22,13.29a13.19,13.19,0,0,0,1.92,6.86l.12.2L0,27l7-2.21.19.1a13.51,13.51,0,0,0,6.47,1.65A13.36,13.36,0,0,0,27,13.29,13.36,13.36,0,0,0,13.62,0Zm0,25.38a12.18,12.18,0,0,1-6.5-1.87L1.91,25.16l1.69-5a11.92,11.92,0,0,1-2.17-6.88A12.19,12.19,0,0,1,22.22,4.74a12,12,0,0,1,3.57,8.54A12.15,12.15,0,0,1,13.61,25.38Z"/></g></g></svg>