<?xml version="1.0" encoding="utf-8"?>
<!-- Generator: Adobe Illustrator 19.0.0, SVG Export Plug-In . SVG Version: 6.00 Build 0)  -->
<svg version="1.1" id="Capa_1" xmlns="http://www.w3.org/2000/svg" xmlns:xlink="http://www.w3.org/1999/xlink" x="0px" y="0px"
	 viewBox="0 0 16 28.1" style="enable-background:new 0 0 16 28.1;" xml:space="preserve">
<style type="text/css">
	.st0{fill:#FFFFFF;}
</style>
<g>
	<g id="XMLID_80_">
		<path id="XMLID_85_" class="st0" d="M13.9,0H2.1C1,0,0,0.9,0,2.1V26c0,1.1,0.9,2.1,2.1,2.1h11.8c1.1,0,2.1-0.9,2.1-2.1V2.1
			C16,0.9,15.1,0,13.9,0L13.9,0z M1.1,3.7h14v17.7h-14V3.7z M2.2,0.9H14c0.6,0,1.1,0.5,1.1,1.1v0.7h-14V2C1.1,1.4,1.6,0.9,2.2,0.9
			L2.2,0.9z M13.9,27H2.1C1.5,27,1,26.5,1,25.9v-3.5h14v3.5C15.1,26.5,14.6,27,13.9,27L13.9,27z"/>
		<path id="XMLID_81_" class="st0" d="M8.1,22.8c-1,0-1.9,0.8-1.9,1.9c0,1,0.8,1.9,1.9,1.9s1.9-0.8,1.9-1.9
			C9.9,23.7,9.1,22.8,8.1,22.8L8.1,22.8z M8.1,25.6c-0.5,0-0.9-0.4-0.9-0.9s0.4-0.9,0.9-0.9S9,24.2,9,24.7C9,25.2,8.6,25.6,8.1,25.6
			L8.1,25.6z"/>
	</g>
</g>
</svg>
